# xmcd
# 
# Track frame offsets:
#     183
#     15015
#     27508
#     43038
#     55445
#     66853
#     80225
#     92450
#     106178
#     116753
#     128880
#     139263
# 
# Disc length: 1995
# 
# Revision: 4
# Processed by: cddbd v1.5.2PL0 Copyright (c) Steve Scherf et al.
# Submitted via: fre:ac v1.0.17
# 
DISCID=a007c90c
DTITLE=The Platters - Only You
DYEAR=1996
DGENRE=Oldies
TTITLE0=The Great Pretender
TTITLE1=Only You
TTITLE2=My Prayer
TTITLE3=Twilight Time
TTITLE4=Smoke Gets In Your Eyes
TTITLE5=I'm Sorry
TTITLE6=With This Ring
TTITLE7=Harbour Lights
TTITLE8=He's Mine
TTITLE9=The Magic Touch
TTITLE10=One In A Million
TTITLE11=Red Sails In The Sunset
EXTD=
EXTT0=
EXTT1=
EXTT2=
EXTT3=
EXTT4=
EXTT5=
EXTT6=
EXTT7=
EXTT8=
EXTT9=
EXTT10=
EXTT11=
PLAYORDER=
